<svg xmlns="http://www.w3.org/2000/svg" xmlns:xlink="http://www.w3.org/1999/xlink" xmlns:serif="http://www.serif.com/" width="100%" height="100%" viewBox="0 0 1468 702" xml:space="preserve" style="fill-rule:evenodd;clip-rule:evenodd;stroke-linejoin:round;stroke-miterlimit:2;">    <g transform="matrix(1,0,0,1,-506.627,-1310.35)">        <g transform="matrix(3.27883,0,0,3.27883,980.182,1310.35)">            <path d="M0,213.829L-84.985,213.829C-117.762,213.829 -144.428,187.163 -144.428,154.386L-144.428,59.443C-144.428,26.666 -117.762,0 -84.985,0L0,0C17.145,0 31.092,13.948 31.092,31.092L31.092,143.075C31.092,147.871 28.235,152.207 23.828,154.1C19.421,155.995 14.309,155.08 10.831,151.778L-59.543,84.985L-59.543,167.24L-83.543,167.24L-83.543,57.051C-83.543,52.254 -80.687,47.918 -76.279,46.025C-71.874,44.132 -66.762,45.044 -63.282,48.347L7.092,115.141L7.092,31.092C7.092,27.182 3.91,24 0,24L-84.985,24C-104.528,24 -120.428,39.9 -120.428,59.443L-120.428,154.386C-120.428,173.93 -104.528,189.829 -84.985,189.829L0,189.829C3.91,189.829 7.092,186.647 7.092,182.737L7.092,133.92L31.092,133.92L31.092,182.737C31.092,199.882 17.145,213.829 0,213.829" style="fill:white;fill-rule:nonzero;"></path>        </g>        <g transform="matrix(6.42197,0,0,6.42197,-6313.43,-9049.42)">            <g transform="matrix(50,0,0,50,1160.88,1659.41)">                <path d="M0.19,-0.652C0.225,-0.671 0.265,-0.681 0.311,-0.681C0.357,-0.681 0.397,-0.671 0.432,-0.652C0.467,-0.633 0.494,-0.606 0.513,-0.573C0.551,-0.508 0.57,-0.428 0.57,-0.334C0.57,-0.242 0.551,-0.163 0.512,-0.096C0.492,-0.062 0.465,-0.035 0.43,-0.016C0.395,0.003 0.355,0.013 0.309,0.013C0.262,0.013 0.222,0.003 0.188,-0.016C0.154,-0.035 0.127,-0.062 0.108,-0.095C0.07,-0.16 0.051,-0.24 0.051,-0.334C0.051,-0.427 0.071,-0.507 0.11,-0.573C0.129,-0.606 0.156,-0.633 0.19,-0.652ZM0.187,-0.145C0.214,-0.096 0.255,-0.072 0.31,-0.072C0.365,-0.072 0.406,-0.096 0.433,-0.145C0.459,-0.194 0.472,-0.257 0.472,-0.335C0.472,-0.412 0.459,-0.475 0.433,-0.524C0.406,-0.572 0.365,-0.596 0.31,-0.596C0.255,-0.596 0.214,-0.572 0.188,-0.524C0.161,-0.475 0.148,-0.412 0.148,-0.335C0.148,-0.257 0.161,-0.194 0.187,-0.145Z" style="fill:white;fill-rule:nonzero;"></path>            </g>            <g transform="matrix(50,0,0,50,1191.93,1659.41)">                <path d="M0.24,-0.33C0.205,-0.315 0.178,-0.294 0.16,-0.267C0.142,-0.24 0.133,-0.211 0.133,-0.178C0.133,-0.145 0.146,-0.117 0.171,-0.096C0.196,-0.074 0.227,-0.063 0.264,-0.063C0.322,-0.063 0.37,-0.086 0.409,-0.133L0.24,-0.33ZM0.193,-0.393C0.143,-0.452 0.118,-0.504 0.118,-0.548C0.118,-0.591 0.132,-0.624 0.161,-0.647C0.189,-0.67 0.226,-0.681 0.273,-0.681C0.319,-0.681 0.368,-0.669 0.42,-0.645L0.395,-0.576C0.356,-0.595 0.315,-0.605 0.27,-0.605C0.225,-0.605 0.203,-0.587 0.203,-0.551C0.203,-0.522 0.222,-0.485 0.261,-0.439L0.466,-0.199C0.506,-0.26 0.529,-0.33 0.535,-0.41L0.614,-0.41C0.607,-0.301 0.576,-0.209 0.521,-0.134C0.542,-0.115 0.566,-0.095 0.594,-0.076C0.622,-0.056 0.645,-0.042 0.664,-0.033L0.628,0.031C0.564,0.003 0.51,-0.031 0.465,-0.07C0.41,-0.015 0.341,0.013 0.257,0.013C0.197,0.013 0.146,-0.004 0.105,-0.038C0.064,-0.072 0.043,-0.119 0.043,-0.18C0.043,-0.265 0.093,-0.336 0.193,-0.393Z" style="fill:white;fill-rule:nonzero;"></path>            </g>            <g transform="matrix(50,0,0,50,1225.58,1659.41)">                <path d="M0.58,-0L0.482,-0L0.166,-0.541C0.169,-0.515 0.17,-0.487 0.17,-0.457L0.17,-0L0.079,-0L0.079,-0.668L0.177,-0.668L0.493,-0.127C0.49,-0.153 0.489,-0.181 0.489,-0.211L0.489,-0.668L0.58,-0.668L0.58,-0Z" style="fill:white;fill-rule:nonzero;"></path>            </g>            <g transform="matrix(50,0,0,50,1160.88,1709.41)">                <path d="M0.441,-0.384L0.441,-0.668L0.537,-0.668L0.537,-0L0.441,-0L0.441,-0.304L0.175,-0.304L0.175,-0L0.079,-0L0.079,-0.668L0.175,-0.668L0.175,-0.384L0.441,-0.384Z" style="fill:white;fill-rule:nonzero;"></path>            </g>            <g transform="matrix(50,0,0,50,1191.38,1709.41)">                <path d="M0.404,-0.051C0.365,-0.008 0.315,0.013 0.252,0.013C0.189,0.013 0.139,-0.008 0.102,-0.05C0.065,-0.092 0.046,-0.159 0.046,-0.251C0.046,-0.342 0.066,-0.409 0.105,-0.452C0.143,-0.495 0.194,-0.516 0.257,-0.516C0.32,-0.516 0.37,-0.495 0.407,-0.453C0.444,-0.411 0.462,-0.344 0.462,-0.253C0.462,-0.161 0.443,-0.094 0.404,-0.051ZM0.255,-0.442C0.177,-0.442 0.138,-0.379 0.138,-0.252C0.138,-0.125 0.177,-0.061 0.254,-0.061C0.286,-0.061 0.313,-0.076 0.336,-0.106C0.359,-0.136 0.37,-0.186 0.37,-0.256C0.37,-0.326 0.36,-0.375 0.341,-0.402C0.321,-0.429 0.292,-0.442 0.255,-0.442Z" style="fill:white;fill-rule:nonzero;"></path>            </g>            <g transform="matrix(50,0,0,50,1216.38,1709.41)">                <path d="M0.244,0.013C0.192,0.013 0.158,0.002 0.141,-0.02C0.124,-0.041 0.116,-0.078 0.116,-0.131L0.116,-0.435L0.017,-0.44L0.026,-0.499L0.118,-0.506L0.127,-0.626L0.208,-0.641L0.208,-0.506L0.356,-0.506L0.347,-0.435L0.207,-0.435L0.207,-0.122C0.207,-0.108 0.208,-0.097 0.209,-0.091C0.21,-0.084 0.213,-0.077 0.22,-0.072C0.226,-0.066 0.24,-0.063 0.261,-0.063C0.282,-0.063 0.304,-0.067 0.325,-0.074L0.342,-0.007C0.311,0.006 0.278,0.013 0.244,0.013Z" style="fill:white;fill-rule:nonzero;"></path>            </g>            <g transform="matrix(50,0,0,50,1234.63,1709.41)">                <path d="M0.265,0.013C0.19,0.013 0.135,-0.012 0.099,-0.064C0.062,-0.115 0.044,-0.179 0.044,-0.256C0.044,-0.333 0.063,-0.395 0.102,-0.444C0.141,-0.492 0.194,-0.516 0.261,-0.516C0.318,-0.516 0.361,-0.5 0.391,-0.469C0.42,-0.437 0.435,-0.395 0.435,-0.343C0.435,-0.32 0.43,-0.29 0.42,-0.253L0.126,-0.253C0.127,-0.196 0.14,-0.15 0.163,-0.115C0.186,-0.08 0.221,-0.062 0.268,-0.062C0.314,-0.062 0.358,-0.071 0.399,-0.09L0.422,-0.028C0.374,-0.001 0.322,0.013 0.265,0.013ZM0.353,-0.326C0.353,-0.362 0.346,-0.39 0.331,-0.411C0.316,-0.432 0.296,-0.442 0.27,-0.442C0.244,-0.442 0.223,-0.438 0.206,-0.429C0.189,-0.42 0.175,-0.408 0.166,-0.394C0.15,-0.367 0.14,-0.343 0.136,-0.32L0.353,-0.318L0.353,-0.326Z" style="fill:white;fill-rule:nonzero;"></path>            </g>            <g transform="matrix(50,0,0,50,1258.43,1709.41)">                <path d="M0.069,-0.7L0.16,-0.7L0.16,-0.102C0.16,-0.076 0.172,-0.063 0.196,-0.063C0.215,-0.063 0.234,-0.066 0.255,-0.073L0.27,-0.007C0.243,0.006 0.209,0.013 0.169,0.013C0.102,0.013 0.069,-0.025 0.069,-0.101L0.069,-0.7Z" style="fill:white;fill-rule:nonzero;"></path>            </g>            <g transform="matrix(50,0,0,50,1271.73,1709.41)">                <path d="M0.06,-0.092C0.104,-0.073 0.144,-0.063 0.181,-0.063C0.218,-0.063 0.245,-0.07 0.262,-0.084C0.279,-0.097 0.287,-0.114 0.287,-0.135C0.287,-0.155 0.279,-0.172 0.263,-0.186C0.246,-0.2 0.226,-0.211 0.203,-0.22C0.18,-0.228 0.156,-0.237 0.133,-0.246C0.109,-0.255 0.089,-0.27 0.073,-0.291C0.056,-0.311 0.048,-0.336 0.048,-0.367C0.048,-0.412 0.064,-0.448 0.096,-0.476C0.128,-0.503 0.171,-0.516 0.226,-0.516C0.281,-0.516 0.325,-0.506 0.358,-0.487L0.337,-0.42C0.298,-0.433 0.263,-0.44 0.23,-0.44C0.197,-0.44 0.173,-0.434 0.157,-0.422C0.141,-0.41 0.133,-0.394 0.133,-0.374C0.133,-0.353 0.141,-0.336 0.158,-0.323C0.175,-0.31 0.195,-0.299 0.219,-0.291C0.242,-0.283 0.266,-0.274 0.289,-0.265C0.312,-0.255 0.332,-0.24 0.349,-0.22C0.366,-0.2 0.374,-0.175 0.374,-0.145C0.374,-0.101 0.358,-0.064 0.325,-0.033C0.292,-0.002 0.246,0.013 0.185,0.013C0.157,0.013 0.129,0.009 0.101,0.002C0.072,-0.005 0.051,-0.014 0.037,-0.024L0.06,-0.092Z" style="fill:white;fill-rule:nonzero;"></path>            </g>        </g>    </g></svg>